<?xml version="1.0" encoding="UTF-8" standalone="no" ?>
<!DOCTYPE svg PUBLIC "-//W3C//DTD SVG 1.1//EN" "http://www.w3.org/Graphics/SVG/1.1/DTD/svg11.dtd">
<svg xmlns="http://www.w3.org/2000/svg" xmlns:xlink="http://www.w3.org/1999/xlink" version="1.1" width="1080" height="1080" viewBox="0 0 1080 1080" xml:space="preserve">
<desc>Created with Fabric.js 5.2.4</desc>
<defs>
</defs>
<g transform="matrix(1 0 0 1 540 540)" id="29b75430-b9f5-4030-9aa7-e5cc550e56cb"  >
<rect style="stroke: none; stroke-width: 1; stroke-dasharray: none; stroke-linecap: butt; stroke-dashoffset: 0; stroke-linejoin: miter; stroke-miterlimit: 4; fill: rgb(255,255,255); fill-rule: nonzero; opacity: 1; visibility: hidden;" vector-effect="non-scaling-stroke"  x="-540" y="-540" rx="0" ry="0" width="1080" height="1080" />
</g>
<g transform="matrix(1 0 0 1 540 540)" id="c470dcef-0554-4b19-aa19-2c873dae13ed"  >
</g>
<g transform="matrix(1 0 0 1 540 540)"  >
<g style="" vector-effect="non-scaling-stroke"   >
		<g transform="matrix(0.13 0 0 -0.13 -589.01 -3.72)"  >
<path style="stroke: none; stroke-width: 1; stroke-dasharray: none; stroke-linecap: butt; stroke-dashoffset: 0; stroke-linejoin: miter; stroke-miterlimit: 4; fill: rgb(32,110,202); fill-rule: nonzero; opacity: 1;" vector-effect="non-scaling-stroke"  transform=" translate(-1864.32, -1957.97)" d="M 3096 3545 C 3081 3534 3079 3523 3083 3495 C 3091 3449 3083 3430 3057 3430 C 3034 3430 2987 3383 2996 3369 C 2999 3364 3010 3360 3021 3360 C 3031 3360 3040 3356 3040 3350 C 3040 3345 3034 3340 3027 3340 C 3012 3340 2963 3293 2860 3180 C 2819 3135 2768 3080 2748 3058 C 2727 3035 2708 3009 2705 2999 C 2701 2988 2694 2980 2689 2980 C 2684 2980 2680 2971 2680 2960 C 2680 2949 2674 2940 2667 2940 C 2651 2940 2624 2893 2634 2883 C 2642 2875 2710 2945 2710 2961 C 2710 2966 2717 2970 2725 2970 C 2734 2970 2740 2979 2740 2995 C 2740 3011 2746 3020 2755 3020 C 2773 3020 2775 2984 2758 2973 C 2744 2964 2729 2942 2705 2893 C 2696 2876 2680 2854 2669 2844 C 2659 2835 2650 2822 2650 2815 C 2650 2809 2634 2786 2615 2764 C 2583 2729 2540 2651 2540 2629 C 2540 2624 2555 2621 2573 2622 C 2595 2624 2605 2621 2605 2610 C 2605 2590 2558 2580 2544 2598 C 2532 2615 2510 2606 2510 2585 C 2510 2577 2497 2548 2480 2522 C 2464 2495 2450 2468 2450 2463 C 2450 2457 2444 2447 2436 2441 C 2429 2435 2401 2388 2375 2337 C 2349 2287 2320 2232 2310 2215 C 2300 2199 2291 2179 2291 2173 C 2290 2152 2331 2158 2337 2179 C 2344 2206 2366 2212 2385 2194 C 2406 2172 2404 2161 2375 2148 C 2361 2142 2350 2133 2350 2129 C 2350 2125 2343 2114 2334 2105 C 2321 2093 2320 2086 2330 2075 C 2345 2057 2331 2056 2308 2073 C 2299 2080 2290 2097 2288 2110 C 2284 2144 2262 2141 2243 2105 C 2234 2089 2223 2068 2218 2060 C 2214 2052 2207 2038 2204 2030 C 2201 2022 2192 2002 2184 1987 C 2168 1954 2166 1930 2180 1930 C 2186 1930 2190 1925 2190 1919 C 2190 1911 2185 1912 2175 1920 C 2166 1927 2158 1931 2157 1929 C 2156 1927 2146 1912 2135 1895 C 2124 1879 2107 1849 2098 1830 C 2081 1792 2061 1752 2005 1646 C 1986 1607 1972 1570 1975 1563 C 1977 1555 1975 1552 1970 1555 C 1965 1558 1949 1538 1935 1510 C 1915 1470 1913 1460 1925 1460 C 1933 1460 1940 1452 1940 1442 C 1940 1414 1929 1408 1909 1426 C 1893 1440 1891 1439 1876 1409 C 1867 1391 1860 1372 1860 1366 C 1860 1360 1851 1349 1840 1342 C 1803 1319 1816 1284 1858 1289 C 1866 1291 1870 1284 1868 1273 C 1865 1257 1855 1255 1785 1259 C 1741 1261 1684 1270 1658 1280 C 1626 1292 1610 1294 1607 1287 C 1604 1276 1445 1276 1428 1286 C 1414 1295 1379 1279 1383 1267 C 1385 1260 1400 1253 1416 1250 L 1445 1245 L 1450 1135 C 1453 1074 1457 1021 1460 1015 C 1462 1010 1460 974 1455 937 C 1448 875 1450 865 1469 839 C 1489 813 1489 809 1474 803 C 1465 800 1390 800 1306 803 C 1159 809 1155 809 1133 835 C 1120 849 1110 869 1110 879 C 1110 922 1033 957 980 939 C 949 928 926 873 935 831 C 938 814 937 799 931 795 C 914 785 918 773 940 767 C 964 761 965 747 943 725 C 929 711 915 709 862 714 C 795 721 769 730 735 760 C 714 778 648 795 637 784 C 634 781 638 768 646 756 C 664 727 656 720 604 720 C 563 720 540 707 555 692 C 559 688 693 685 853 685 C 1014 684 1151 681 1159 676 C 1186 659 1146 651 1051 656 C 927 662 921 658 918 563 C 916 523 920 487 925 481 C 941 465 988 480 1006 508 C 1022 532 1022 533 1004 525 C 961 507 945 513 942 549 C 938 590 953 609 975 590 C 985 582 994 581 1002 588 C 1009 593 1049 599 1090 601 L 1165 605 L 1165 555 C 1165 511 1162 505 1140 499 C 1118 493 1117 492 1136 491 C 1148 490 1163 483 1170 475 C 1179 465 1186 463 1194 470 C 1210 483 1506 482 1548 469 C 1575 460 1585 461 1599 474 C 1615 489 1618 488 1629 463 C 1639 442 1638 435 1628 429 C 1621 424 1517 420 1398 420 C 1264 420 1179 416 1175 410 C 1163 390 1141 401 1138 428 C 1135 453 1132 455 1081 458 C 1004 462 977 454 985 430 C 990 415 987 410 972 410 C 960 410 950 419 946 433 C 940 455 940 455 922 435 C 907 417 893 415 780 415 C 621 415 520 403 520 385 C 520 367 592 355 690 356 C 927 358 1266 374 1335 385 C 1391 394 1439 396 1490 390 C 1531 385 1640 379 1732 375 L 1899 367 L 1911 394 C 1920 414 1920 429 1911 459 C 1898 505 1879 514 1815 504 C 1779 499 1772 495 1780 484 C 1789 475 1786 466 1771 451 C 1759 439 1748 430 1745 430 C 1735 430 1740 476 1751 487 C 1759 495 1759 500 1751 504 C 1745 508 1740 541 1740 581 C 1740 634 1736 652 1725 656 C 1717 660 1710 673 1710 686 C 1710 707 1715 710 1743 710 C 1766 710 1784 718 1800 735 C 1826 762 1888 784 1914 774 C 1923 771 1930 773 1930 778 C 1930 785 1902 790 1863 792 L 1795 795 L 1799 888 C 1803 1010 1784 1011 1774 889 C 1770 838 1762 797 1756 794 C 1750 792 1718 793 1685 797 L 1625 805 L 1622 853 C 1620 880 1623 907 1629 914 C 1635 922 1635 969 1628 1055 C 1612 1251 1614 1260 1656 1260 C 1673 1260 1684 1254 1687 1240 C 1691 1225 1700 1221 1729 1223 C 1764 1225 1765 1224 1768 1187 C 1770 1166 1780 1140 1790 1130 C 1809 1111 1810 1112 1845 1142 C 1866 1161 1880 1183 1880 1197 C 1880 1210 1887 1223 1895 1226 C 1903 1230 1910 1241 1910 1252 C 1910 1275 1940 1330 1953 1330 C 1990 1330 2015 1285 1985 1274 C 1977 1270 1970 1255 1970 1240 C 1970 1206 1955 1194 1935 1210 C 1926 1218 1920 1218 1920 1212 C 1920 1206 1925 1200 1931 1198 C 1956 1190 1929 1151 1894 1144 C 1860 1138 1859 1136 1865 1104 C 1870 1077 1868 1070 1855 1070 C 1841 1070 1820 1033 1820 1008 C 1820 998 1876 1001 1917 1015 C 1935 1021 1939 1018 1942 993 L 1945 965 L 1968 1005 C 1983 1029 1988 1046 1981 1048 C 1967 1053 1967 1087 1980 1095 C 1986 1098 1999 1121 2010 1146 C 2021 1170 2035 1190 2040 1190 C 2046 1190 2050 1199 2050 1209 C 2050 1220 2055 1232 2061 1235 C 2066 1239 2075 1252 2081 1263 C 2086 1275 2094 1293 2100 1303 C 2123 1343 2131 1358 2155 1407 C 2170 1436 2185 1462 2191 1465 C 2196 1469 2200 1478 2200 1486 C 2200 1494 2212 1519 2227 1543 C 2260 1594 2310 1690 2310 1702 C 2310 1717 2291 1710 2268 1687 C 2253 1672 2246 1655 2249 1640 L 2252 1615 L 2225 1644 L 2198 1673 L 2234 1706 C 2269 1738 2280 1760 2260 1760 C 2255 1760 2250 1767 2250 1775 C 2250 1806 2304 1781 2311 1747 C 2313 1737 2320 1729 2325 1729 C 2341 1729 2343 1772 2328 1782 C 2319 1788 2322 1789 2337 1785 C 2354 1780 2361 1786 2374 1811 C 2383 1829 2390 1847 2390 1852 C 2390 1867 2370 1861 2353 1840 C 2343 1829 2330 1820 2323 1820 C 2297 1820 2311 1848 2350 1874 C 2372 1888 2390 1896 2390 1890 C 2390 1885 2396 1880 2403 1880 C 2416 1880 2450 1934 2450 1956 C 2450 1975 2431 1974 2424 1955 C 2420 1947 2407 1940 2394 1940 C 2381 1940 2370 1936 2370 1930 C 2370 1917 2333 1880 2320 1880 C 2301 1880 2310 1901 2340 1927 C 2357 1940 2370 1958 2370 1966 C 2370 1989 2405 2001 2440 1989 C 2457 1983 2472 1979 2474 1981 C 2497 2015 2510 2043 2510 2059 C 2510 2069 2516 2080 2524 2083 C 2532 2086 2540 2099 2542 2112 C 2544 2125 2553 2136 2565 2139 C 2591 2143 2600 2158 2600 2198 C 2600 2215 2605 2230 2610 2230 C 2616 2230 2620 2235 2620 2241 C 2620 2253 2645 2314 2661 2340 C 2687 2384 2729 2474 2725 2478 C 2718 2486 2690 2459 2690 2444 C 2690 2437 2681 2426 2670 2420 C 2659 2414 2650 2400 2650 2389 C 2650 2378 2645 2364 2640 2357 C 2634 2350 2621 2333 2609 2318 C 2584 2284 2570 2282 2570 2313 C 2570 2326 2579 2339 2592 2345 C 2605 2351 2616 2364 2618 2375 C 2624 2412 2664 2500 2674 2500 C 2680 2500 2691 2504 2699 2509 C 2710 2516 2709 2522 2694 2544 C 2669 2578 2650 2577 2650 2541 C 2650 2524 2646 2508 2640 2505 C 2635 2502 2630 2490 2630 2480 C 2630 2461 2598 2444 2580 2455 C 2571 2461 2590 2499 2615 2526 C 2620 2532 2634 2553 2645 2573 C 2665 2612 2680 2621 2680 2595 C 2680 2586 2687 2577 2695 2574 C 2703 2570 2710 2559 2710 2549 C 2710 2539 2714 2530 2719 2530 C 2724 2530 2735 2527 2743 2524 C 2754 2520 2764 2530 2775 2555 C 2785 2574 2791 2593 2788 2595 C 2786 2598 2769 2596 2752 2591 C 2723 2582 2721 2583 2730 2600 C 2736 2611 2752 2631 2765 2646 C 2788 2671 2790 2672 2790 2652 C 2790 2641 2795 2628 2801 2624 C 2817 2614 2850 2659 2850 2691 C 2850 2706 2857 2723 2865 2730 C 2883 2745 2885 2766 2869 2775 C 2863 2779 2856 2773 2854 2763 C 2847 2739 2813 2716 2805 2731 C 2801 2736 2804 2748 2812 2757 C 2819 2766 2825 2784 2825 2798 C 2825 2830 2849 2839 2857 2811 C 2864 2785 2872 2785 2893 2808 C 2917 2835 2926 2880 2906 2880 C 2898 2880 2886 2871 2880 2859 C 2871 2843 2866 2841 2854 2851 C 2843 2860 2837 2860 2825 2850 C 2795 2825 2787 2854 2812 2893 C 2839 2936 2850 2939 2850 2905 C 2850 2875 2869 2873 2893 2901 C 2907 2917 2908 2925 2900 2935 C 2893 2943 2891 2954 2895 2960 C 2906 2977 2927 2971 2933 2949 C 2941 2920 2964 2930 2968 2965 C 2970 2980 2981 3009 2993 3029 C 3034 3096 3079 3205 3092 3269 C 3099 3304 3110 3335 3117 3337 C 3134 3344 3134 3382 3118 3399 C 3107 3409 3109 3413 3123 3421 C 3133 3427 3139 3438 3136 3448 C 3129 3470 3144 3495 3159 3486 C 3165 3482 3170 3467 3170 3452 C 3171 3426 3171 3426 3186 3445 C 3206 3472 3213 3505 3206 3535 C 3200 3557 3194 3560 3157 3560 C 3134 3560 3107 3553 3096 3545 z M 3160 3520 C 3160 3515 3155 3510 3149 3510 C 3144 3510 3142 3515 3145 3520 C 3148 3526 3153 3530 3156 3530 C 3158 3530 3160 3526 3160 3520 z M 3076 3293 C 3066 3283 3057 3298 3066 3311 C 3072 3322 3074 3322 3078 3311 C 3080 3304 3079 3296 3076 3293 z M 2894 3101 C 2873 3077 2850 3073 2850 3095 C 2850 3103 2857 3110 2865 3110 C 2874 3110 2883 3117 2887 3126 C 2890 3136 2896 3138 2902 3132 C 2908 3126 2905 3115 2894 3101 z M 2910 3012 C 2910 2999 2898 2990 2888 2996 C 2878 3002 2887 3020 2901 3020 C 2906 3020 2910 3016 2910 3012 z M 2820 2995 C 2820 2987 2816 2980 2810 2980 C 2805 2980 2800 2987 2800 2995 C 2800 3003 2805 3010 2810 3010 C 2816 3010 2820 3003 2820 2995 z M 2746 2824 C 2743 2813 2726 2797 2709 2788 C 2674 2767 2647 2764 2670 2783 C 2678 2790 2694 2812 2705 2832 C 2722 2864 2727 2868 2738 2856 C 2746 2848 2749 2834 2746 2824 z M 2790 2806 C 2790 2779 2726 2670 2709 2670 C 2693 2670 2699 2696 2720 2715 C 2732 2726 2740 2746 2740 2766 C 2740 2789 2745 2800 2758 2803 C 2783 2810 2790 2810 2790 2806 z M 2650 2719 C 2650 2714 2646 2710 2640 2710 C 2635 2710 2630 2717 2630 2726 C 2630 2734 2635 2738 2640 2735 C 2646 2732 2650 2725 2650 2719 z M 2590 2550 C 2590 2545 2586 2540 2580 2540 C 2575 2540 2570 2545 2570 2550 C 2570 2556 2575 2560 2580 2560 C 2586 2560 2590 2556 2590 2550 z M 2540 2501 C 2540 2491 2533 2479 2524 2476 C 2512 2471 2509 2462 2514 2436 C 2522 2397 2513 2370 2494 2370 C 2478 2370 2475 2415 2490 2425 C 2496 2429 2495 2438 2488 2450 C 2478 2466 2480 2473 2500 2495 C 2528 2525 2540 2527 2540 2501 z M 2582 2403 C 2577 2393 2565 2368 2555 2348 C 2545 2327 2531 2310 2523 2310 C 2505 2310 2506 2355 2525 2370 C 2533 2377 2540 2388 2540 2396 C 2540 2403 2550 2411 2563 2413 C 2575 2415 2586 2418 2588 2419 C 2589 2419 2586 2412 2582 2403 z M 2465 2371 C 2465 2356 2434 2332 2426 2341 C 2423 2344 2423 2356 2427 2368 C 2433 2393 2465 2395 2465 2371 z M 2500 2241 C 2500 2236 2493 2229 2484 2226 C 2462 2217 2460 2218 2460 2235 C 2460 2243 2469 2250 2480 2250 C 2491 2250 2500 2246 2500 2241 z M 2552 2188 C 2543 2173 2532 2160 2528 2160 C 2523 2160 2515 2149 2510 2135 C 2499 2107 2450 2098 2450 2125 C 2450 2145 2434 2144 2426 2124 C 2423 2116 2416 2112 2410 2115 C 2395 2124 2398 2134 2421 2149 C 2438 2159 2444 2159 2450 2149 C 2455 2142 2466 2140 2476 2144 C 2489 2149 2491 2153 2482 2162 C 2466 2178 2467 2191 2483 2184 C 2490 2182 2509 2193 2525 2209 C 2560 2244 2577 2230 2552 2188 z M 2398 2047 C 2400 2035 2395 2030 2381 2030 C 2369 2030 2360 2036 2360 2043 C 2360 2074 2392 2077 2398 2047 z M 2250 2035 C 2250 2027 2246 2020 2240 2020 C 2235 2020 2230 2027 2230 2035 C 2230 2043 2235 2050 2240 2050 C 2246 2050 2250 2043 2250 2035 z M 2450 2040 C 2450 2035 2446 2030 2440 2030 C 2435 2030 2430 2035 2430 2040 C 2430 2046 2435 2050 2440 2050 C 2446 2050 2450 2046 2450 2040 z M 2291 2006 C 2284 1998 2278 1977 2277 1958 C 2274 1919 2246 1875 2230 1885 C 2224 1889 2221 1899 2224 1907 C 2228 1916 2226 1928 2220 1935 C 2213 1944 2213 1956 2221 1974 C 2231 1996 2251 2008 2299 2019 C 2301 2020 2297 2014 2291 2006 z M 2184 1841 C 2187 1837 2181 1825 2171 1816 C 2150 1797 2136 1808 2146 1834 C 2153 1851 2175 1856 2184 1841 z M 2200 1757 C 2200 1714 2191 1705 2173 1730 C 2157 1753 2165 1790 2186 1790 C 2195 1790 2200 1779 2200 1757 z M 2110 1759 C 2110 1752 2117 1742 2125 1736 C 2139 1726 2138 1720 2120 1686 C 2092 1630 2066 1615 2057 1649 C 2054 1661 2061 1676 2076 1689 C 2102 1711 2106 1725 2090 1735 C 2075 1745 2078 1770 2095 1770 C 2103 1770 2110 1765 2110 1759 z M 2200 1640 C 2200 1635 2191 1630 2180 1630 C 2169 1630 2160 1635 2160 1640 C 2160 1646 2169 1650 2180 1650 C 2191 1650 2200 1646 2200 1640 z M 2180 1570 C 2168 1562 2167 1557 2178 1540 C 2185 1528 2186 1520 2180 1520 C 2175 1520 2170 1513 2170 1505 C 2170 1496 2163 1487 2155 1484 C 2146 1480 2140 1465 2140 1449 C 2140 1433 2137 1420 2132 1420 C 2128 1420 2112 1408 2097 1394 C 2081 1380 2066 1371 2063 1374 C 2054 1383 2098 1468 2119 1479 C 2140 1491 2153 1527 2139 1536 C 2123 1545 2129 1560 2153 1570 C 2183 1582 2199 1582 2180 1570 z M 2020 1505 C 2020 1497 2013 1490 2005 1490 C 1979 1490 1987 1510 2018 1519 C 2019 1520 2020 1513 2020 1505 z M 2050 1455 C 2050 1435 2003 1360 1990 1360 C 1973 1360 1969 1380 1984 1386 C 1993 1389 2000 1399 2000 1407 C 2000 1423 2031 1469 2043 1470 C 2047 1470 2050 1463 2050 1455 z M 2070 1300 C 2037 1274 2030 1275 2030 1305 C 2030 1337 2060 1354 2080 1334 C 2093 1321 2092 1317 2070 1300 z M 1568 953 C 1572 911 1556 911 1536 952 C 1516 992 1516 992 1543 988 C 1560 986 1566 977 1568 953 z M 1830 410 C 1830 405 1823 400 1815 400 C 1807 400 1800 405 1800 410 C 1800 416 1807 420 1815 420 C 1823 420 1830 416 1830 410 z" stroke-linecap="round" />
</g>
		<g transform="matrix(0.13 0 0 -0.13 -492.95 -120.99)"  >
<path style="stroke: none; stroke-width: 1; stroke-dasharray: none; stroke-linecap: butt; stroke-dashoffset: 0; stroke-linejoin: miter; stroke-miterlimit: 4; fill: rgb(32,110,202); fill-rule: nonzero; opacity: 1;" vector-effect="non-scaling-stroke"  transform=" translate(-2584.84, -2837.52)" d="M 2600 2860 C 2600 2855 2593 2850 2585 2850 C 2577 2850 2570 2844 2570 2836 C 2570 2828 2564 2820 2558 2817 C 2551 2815 2548 2810 2552 2806 C 2555 2802 2572 2811 2589 2826 C 2620 2854 2628 2870 2610 2870 C 2605 2870 2600 2866 2600 2860 z" stroke-linecap="round" />
</g>
		<g transform="matrix(0.13 0 0 -0.13 -500.26 -113.32)"  >
<path style="stroke: none; stroke-width: 1; stroke-dasharray: none; stroke-linecap: butt; stroke-dashoffset: 0; stroke-linejoin: miter; stroke-miterlimit: 4; fill: rgb(32,110,202); fill-rule: nonzero; opacity: 1;" vector-effect="non-scaling-stroke"  transform=" translate(-2530, -2780)" d="M 2520 2780 C 2520 2775 2525 2770 2530 2770 C 2536 2770 2540 2775 2540 2780 C 2540 2786 2536 2790 2530 2790 C 2525 2790 2520 2786 2520 2780 z" stroke-linecap="round" />
</g>
		<g transform="matrix(0.13 0 0 -0.13 -508.26 -105.56)"  >
<path style="stroke: none; stroke-width: 1; stroke-dasharray: none; stroke-linecap: butt; stroke-dashoffset: 0; stroke-linejoin: miter; stroke-miterlimit: 4; fill: rgb(32,110,202); fill-rule: nonzero; opacity: 1;" vector-effect="non-scaling-stroke"  transform=" translate(-2470, -2721.8)" d="M 2460 2719 C 2460 2714 2465 2712 2470 2715 C 2476 2718 2480 2723 2480 2726 C 2480 2728 2476 2730 2470 2730 C 2465 2730 2460 2725 2460 2719 z" stroke-linecap="round" />
</g>
		<g transform="matrix(0.13 0 0 -0.13 -546.26 -59.99)"  >
<path style="stroke: none; stroke-width: 1; stroke-dasharray: none; stroke-linecap: butt; stroke-dashoffset: 0; stroke-linejoin: miter; stroke-miterlimit: 4; fill: rgb(32,110,202); fill-rule: nonzero; opacity: 1;" vector-effect="non-scaling-stroke"  transform=" translate(-2185, -2380)" d="M 2170 2380 C 2170 2375 2177 2370 2185 2370 C 2193 2370 2200 2375 2200 2380 C 2200 2386 2193 2390 2185 2390 C 2177 2390 2170 2386 2170 2380 z" stroke-linecap="round" />
</g>
		<g transform="matrix(0.13 0 0 -0.13 -552.26 -56.76)"  >
<path style="stroke: none; stroke-width: 1; stroke-dasharray: none; stroke-linecap: butt; stroke-dashoffset: 0; stroke-linejoin: miter; stroke-miterlimit: 4; fill: rgb(32,110,202); fill-rule: nonzero; opacity: 1;" vector-effect="non-scaling-stroke"  transform=" translate(-2140, -2355.83)" d="M 2120 2361 C 2120 2350 2151 2337 2159 2345 C 2162 2348 2158 2355 2150 2360 C 2131 2372 2120 2372 2120 2361 z" stroke-linecap="round" />
</g>
		<g transform="matrix(0.13 0 0 -0.13 -624.55 14.11)"  >
<path style="stroke: none; stroke-width: 1; stroke-dasharray: none; stroke-linecap: butt; stroke-dashoffset: 0; stroke-linejoin: miter; stroke-miterlimit: 4; fill: rgb(32,110,202); fill-rule: nonzero; opacity: 1;" vector-effect="non-scaling-stroke"  transform=" translate(-1597.8, -1824.29)" d="M 1928 2315 C 1911 2300 1902 2285 1906 2276 C 1911 2264 1902 2259 1871 2254 C 1832 2248 1829 2245 1824 2209 C 1820 2187 1814 2170 1809 2170 C 1804 2170 1788 2158 1772 2143 C 1756 2127 1714 2090 1679 2060 C 1645 2030 1608 1997 1598 1988 C 1588 1978 1578 1970 1575 1970 C 1573 1970 1529 1927 1478 1875 C 1390 1784 1327 1740 1284 1740 C 1273 1740 1254 1730 1242 1717 C 1224 1698 1221 1685 1224 1649 C 1229 1604 1220 1532 1200 1448 C 1189 1401 1188 1400 1139 1394 C 1061 1384 1093 1370 1196 1370 C 1290 1370 1291 1370 1284 1393 C 1281 1405 1271 1419 1264 1423 C 1249 1432 1246 1472 1256 1533 C 1263 1575 1276 1581 1289 1547 C 1294 1534 1305 1518 1314 1511 C 1325 1501 1327 1494 1318 1481 C 1310 1467 1311 1459 1326 1442 C 1336 1430 1351 1420 1358 1420 C 1376 1420 1367 1474 1340 1534 C 1330 1557 1320 1584 1317 1595 C 1314 1606 1309 1622 1306 1631 C 1301 1643 1309 1649 1338 1658 C 1421 1683 1453 1665 1430 1605 C 1425 1591 1422 1575 1425 1570 C 1433 1557 1419 1530 1404 1530 C 1393 1530 1392 1525 1398 1513 C 1403 1503 1406 1473 1404 1445 C 1402 1398 1400 1395 1374 1395 C 1359 1395 1345 1390 1343 1384 C 1338 1368 1394 1349 1465 1343 C 1498 1340 1540 1332 1559 1324 C 1592 1310 1595 1311 1614 1331 L 1635 1352 L 1613 1367 C 1596 1378 1590 1393 1589 1419 C 1589 1448 1587 1451 1580 1435 C 1576 1424 1574 1405 1577 1393 C 1583 1365 1547 1354 1493 1367 C 1462 1374 1454 1381 1450 1405 C 1447 1422 1447 1446 1451 1460 C 1455 1474 1465 1512 1472 1544 C 1487 1609 1504 1626 1514 1585 C 1523 1550 1540 1554 1540 1592 C 1540 1611 1531 1633 1518 1647 C 1498 1669 1498 1671 1514 1689 C 1524 1700 1530 1717 1528 1728 C 1524 1753 1570 1818 1633 1876 C 1662 1901 1758 1994 1847 2082 C 1958 2191 2023 2247 2054 2261 C 2080 2272 2100 2285 2100 2290 C 2100 2302 2064 2321 2056 2313 C 2053 2310 2042 2314 2032 2323 C 2011 2342 2000 2336 2000 2308 C 2000 2294 1992 2290 1963 2290 C 1928 2291 1927 2292 1944 2305 C 1954 2312 1960 2323 1959 2329 C 1957 2334 1943 2328 1928 2315 z M 1953 2233 C 1946 2231 1940 2223 1940 2216 C 1940 2209 1894 2161 1838 2109 C 1712 1993 1574 1863 1543 1831 C 1514 1801 1459 1760 1447 1760 C 1414 1760 1497 1872 1567 1921 C 1600 1944 1750 2080 1826 2157 C 1889 2220 1914 2236 1955 2238 C 1961 2238 1959 2236 1953 2233 z" stroke-linecap="round" />
</g>
		<g transform="matrix(0.13 0 0 -0.13 -392.04 103.62)"  >
<path style="stroke: none; stroke-width: 1; stroke-dasharray: none; stroke-linecap: butt; stroke-dashoffset: 0; stroke-linejoin: miter; stroke-miterlimit: 4; fill: rgb(32,110,202); fill-rule: nonzero; opacity: 1;" vector-effect="non-scaling-stroke"  transform=" translate(-3341.62, -1152.97)" d="M 3208 1997 C 3203 1987 3200 1968 3200 1955 C 3200 1943 3194 1927 3187 1921 C 3178 1914 3089 1909 2929 1908 L 2685 1905 L 2685 1105 L 2685 305 L 3034 302 C 3280 301 3387 303 3396 311 C 3406 320 3410 370 3412 529 L 3415 735 L 3633 738 L 3850 740 L 3850 532 C 3850 384 3853 321 3862 312 C 3879 295 3975 297 3989 314 C 3997 324 3999 542 3998 1116 L 3995 1905 L 3613 1908 L 3230 1910 L 3225 1933 C 3223 1945 3219 1969 3218 1985 C 3216 2009 3214 2011 3208 1997 z M 3255 1475 L 3255 1335 L 3043 1332 L 2830 1330 L 2830 1475 L 2830 1620 L 3043 1618 L 3255 1615 L 3255 1475 z M 3850 1475 L 3850 1330 L 3633 1332 L 3415 1335 L 3412 1464 C 3411 1536 3412 1600 3414 1607 C 3418 1617 3467 1620 3635 1620 L 3850 1620 L 3850 1475 z M 3248 1172 C 3257 1165 3260 1129 3258 1024 L 3255 885 L 3045 885 L 2835 885 L 2832 1019 C 2831 1093 2832 1160 2834 1167 C 2838 1177 2884 1180 3037 1180 C 3146 1180 3241 1176 3248 1172 z M 3845 1030 L 3845 885 L 3650 882 C 3543 881 3445 882 3433 885 C 3411 890 3410 894 3410 1023 C 3410 1114 3414 1160 3422 1168 C 3431 1177 3488 1180 3640 1178 L 3845 1175 L 3845 1030 z M 3255 595 L 3255 455 L 3043 452 L 2831 450 L 2828 585 C 2826 659 2827 725 2828 730 C 2831 737 2908 739 3043 738 L 3255 735 L 3255 595 z" stroke-linecap="round" />
</g>
		<g transform="matrix(0.13 0 0 -0.13 -629.76 57.77)"  >
<path style="stroke: none; stroke-width: 1; stroke-dasharray: none; stroke-linecap: butt; stroke-dashoffset: 0; stroke-linejoin: miter; stroke-miterlimit: 4; fill: rgb(32,110,202); fill-rule: nonzero; opacity: 1;" vector-effect="non-scaling-stroke"  transform=" translate(-1558.7, -1496.86)" d="M 1542 1498 C 1544 1468 1549 1455 1560 1455 C 1584 1455 1581 1534 1557 1538 C 1541 1541 1539 1536 1542 1498 z" stroke-linecap="round" />
</g>
		<g transform="matrix(0.13 0 0 -0.13 -718.66 74.84)"  >
<path style="stroke: none; stroke-width: 1; stroke-dasharray: none; stroke-linecap: butt; stroke-dashoffset: 0; stroke-linejoin: miter; stroke-miterlimit: 4; fill: rgb(32,110,202); fill-rule: nonzero; opacity: 1;" vector-effect="non-scaling-stroke"  transform=" translate(-892.01, -1368.83)" d="M 679 1439 C 674 1428 664 1420 659 1420 C 636 1420 570 1358 570 1336 C 570 1324 565 1309 559 1303 C 552 1296 552 1290 558 1286 C 564 1283 579 1291 591 1305 C 604 1319 629 1340 647 1351 C 676 1369 684 1370 742 1359 C 821 1345 853 1333 845 1320 C 842 1314 828 1310 815 1310 C 802 1310 789 1306 786 1301 C 777 1286 856 1281 1040 1285 C 1246 1289 1235 1288 1227 1296 C 1224 1299 1156 1304 1077 1306 L 932 1310 L 896 1346 C 868 1374 862 1385 872 1391 C 879 1396 888 1400 893 1400 C 897 1400 900 1404 900 1410 C 900 1429 843 1448 767 1452 C 699 1456 688 1455 679 1439 z" stroke-linecap="round" />
</g>
		<g transform="matrix(0.13 0 0 -0.13 -746.91 88.39)"  >
<path style="stroke: none; stroke-width: 1; stroke-dasharray: none; stroke-linecap: butt; stroke-dashoffset: 0; stroke-linejoin: miter; stroke-miterlimit: 4; fill: rgb(32,110,202); fill-rule: nonzero; opacity: 1;" vector-effect="non-scaling-stroke"  transform=" translate(-680.07, -1267.21)" d="M 653 1283 C 635 1281 620 1275 620 1271 C 620 1262 669 1250 706 1250 C 726 1250 747 1266 738 1275 C 731 1282 683 1287 653 1283 z" stroke-linecap="round" />
</g>
		<g transform="matrix(0.13 0 0 -0.13 -757.57 105.87)"  >
<path style="stroke: none; stroke-width: 1; stroke-dasharray: none; stroke-linecap: butt; stroke-dashoffset: 0; stroke-linejoin: miter; stroke-miterlimit: 4; fill: rgb(32,110,202); fill-rule: nonzero; opacity: 1;" vector-effect="non-scaling-stroke"  transform=" translate(-600.17, -1136.08)" d="M 545 1248 C 541 1234 534 1180 524 1088 C 520 1048 521 1030 529 1030 C 535 1030 540 1047 540 1068 C 540 1089 543 1110 547 1113 C 559 1125 590 1088 590 1061 C 590 1017 604 1005 642 1016 L 675 1026 L 678 1106 C 680 1175 678 1188 660 1207 C 643 1226 635 1228 614 1220 C 583 1208 570 1207 589 1219 C 597 1224 600 1235 597 1244 C 590 1263 551 1266 545 1248 z" stroke-linecap="round" />
</g>
		<g transform="matrix(0.13 0 0 -0.13 -609.59 100.01)"  >
<path style="stroke: none; stroke-width: 1; stroke-dasharray: none; stroke-linecap: butt; stroke-dashoffset: 0; stroke-linejoin: miter; stroke-miterlimit: 4; fill: rgb(32,110,202); fill-rule: nonzero; opacity: 1;" vector-effect="non-scaling-stroke"  transform=" translate(-1710, -1180)" d="M 1700 1180 C 1700 1175 1705 1170 1710 1170 C 1716 1170 1720 1175 1720 1180 C 1720 1186 1716 1190 1710 1190 C 1705 1190 1700 1186 1700 1180 z" stroke-linecap="round" />
</g>
		<g transform="matrix(0.13 0 0 -0.13 -565.59 108.01)"  >
<path style="stroke: none; stroke-width: 1; stroke-dasharray: none; stroke-linecap: butt; stroke-dashoffset: 0; stroke-linejoin: miter; stroke-miterlimit: 4; fill: rgb(32,110,202); fill-rule: nonzero; opacity: 1;" vector-effect="non-scaling-stroke"  transform=" translate(-2040, -1120)" d="M 2030 1120 C 2030 1115 2035 1110 2040 1110 C 2046 1110 2050 1115 2050 1120 C 2050 1126 2046 1130 2040 1130 C 2035 1130 2030 1126 2030 1120 z" stroke-linecap="round" />
</g>
		<g transform="matrix(0.13 0 0 -0.13 -607.37 114.35)"  >
<path style="stroke: none; stroke-width: 1; stroke-dasharray: none; stroke-linecap: butt; stroke-dashoffset: 0; stroke-linejoin: miter; stroke-miterlimit: 4; fill: rgb(32,110,202); fill-rule: nonzero; opacity: 1;" vector-effect="non-scaling-stroke"  transform=" translate(-1726.64, -1072.49)" d="M 1716 1084 C 1709 1066 1716 1050 1731 1050 C 1743 1050 1743 1087 1731 1094 C 1726 1097 1719 1093 1716 1084 z" stroke-linecap="round" />
</g>
		<g transform="matrix(0.13 0 0 -0.13 -600.92 118.68)"  >
<path style="stroke: none; stroke-width: 1; stroke-dasharray: none; stroke-linecap: butt; stroke-dashoffset: 0; stroke-linejoin: miter; stroke-miterlimit: 4; fill: rgb(32,110,202); fill-rule: nonzero; opacity: 1;" vector-effect="non-scaling-stroke"  transform=" translate(-1775, -1040)" d="M 1750 1040 C 1750 1035 1761 1030 1775 1030 C 1789 1030 1800 1035 1800 1040 C 1800 1046 1789 1050 1775 1050 C 1761 1050 1750 1046 1750 1040 z" stroke-linecap="round" />
</g>
		<g transform="matrix(0.13 0 0 -0.13 -763.15 145.39)"  >
<path style="stroke: none; stroke-width: 1; stroke-dasharray: none; stroke-linecap: butt; stroke-dashoffset: 0; stroke-linejoin: miter; stroke-miterlimit: 4; fill: rgb(32,110,202); fill-rule: nonzero; opacity: 1;" vector-effect="non-scaling-stroke"  transform=" translate(-558.29, -839.68)" d="M 518 868 C 515 756 519 735 542 758 C 549 765 564 770 577 770 C 609 770 606 788 573 792 C 539 796 530 832 556 861 C 565 871 568 880 563 880 C 557 880 549 891 546 905 C 534 950 520 931 518 868 z" stroke-linecap="round" />
</g>
		<g transform="matrix(0.13 0 0 -0.13 -743.11 134.69)"  >
<path style="stroke: none; stroke-width: 1; stroke-dasharray: none; stroke-linecap: butt; stroke-dashoffset: 0; stroke-linejoin: miter; stroke-miterlimit: 4; fill: rgb(32,110,202); fill-rule: nonzero; opacity: 1;" vector-effect="non-scaling-stroke"  transform=" translate(-708.59, -919.94)" d="M 655 920 C 648 908 679 908 735 919 C 775 928 775 928 718 929 C 687 929 658 926 655 920 z" stroke-linecap="round" />
</g>
		<g transform="matrix(0.13 0 0 -0.13 -154.95 164.77)"  >
<path style="stroke: none; stroke-width: 1; stroke-dasharray: none; stroke-linecap: butt; stroke-dashoffset: 0; stroke-linejoin: miter; stroke-miterlimit: 4; fill: rgb(32,110,202); fill-rule: nonzero; opacity: 1;" vector-effect="non-scaling-stroke"  transform=" translate(-5119.84, -694.34)" d="M 4987 904 C 4983 900 4980 805 4980 694 L 4980 490 L 5005 484 C 5055 472 5060 481 5060 585 C 5060 673 5062 683 5085 705 C 5114 735 5141 737 5163 712 C 5177 697 5180 672 5180 593 C 5180 487 5183 480 5231 480 C 5258 480 5264 516 5257 639 C 5251 736 5248 747 5225 768 C 5194 794 5137 797 5094 775 L 5065 760 L 5060 833 C 5055 905 5055 905 5025 908 C 5008 910 4991 908 4987 904 z" stroke-linecap="round" />
</g>
		<g transform="matrix(0.13 0 0 -0.13 -106.28 164.61)"  >
<path style="stroke: none; stroke-width: 1; stroke-dasharray: none; stroke-linecap: butt; stroke-dashoffset: 0; stroke-linejoin: miter; stroke-miterlimit: 4; fill: rgb(32,110,202); fill-rule: nonzero; opacity: 1;" vector-effect="non-scaling-stroke"  transform=" translate(-5484.82, -695.5)" d="M 5342 698 L 5345 485 L 5368 482 C 5381 480 5402 485 5415 494 C 5435 507 5440 507 5450 495 C 5458 486 5480 480 5509 480 C 5550 480 5561 485 5590 515 C 5618 543 5624 559 5628 604 C 5634 682 5624 725 5589 760 C 5563 785 5551 790 5510 790 C 5483 790 5458 786 5455 780 C 5452 775 5443 770 5435 770 C 5425 770 5420 788 5418 838 L 5415 905 L 5377 908 L 5340 911 L 5342 698 z M 5520 717 C 5550 694 5563 645 5550 605 C 5528 538 5486 521 5443 562 C 5411 592 5410 680 5442 710 C 5466 732 5497 735 5520 717 z" stroke-linecap="round" />
</g>
		<g transform="matrix(0.13 0 0 -0.13 -25.7 164.53)"  >
<path style="stroke: none; stroke-width: 1; stroke-dasharray: none; stroke-linecap: butt; stroke-dashoffset: 0; stroke-linejoin: miter; stroke-miterlimit: 4; fill: rgb(32,110,202); fill-rule: nonzero; opacity: 1;" vector-effect="non-scaling-stroke"  transform=" translate(-6089.19, -696.1)" d="M 6030 722 C 6030 544 6031 531 6051 506 C 6068 484 6079 479 6109 482 C 6137 484 6146 490 6148 507 C 6150 521 6144 533 6131 540 C 6112 550 6110 561 6108 728 L 6105 905 L 6068 908 L 6030 911 L 6030 722 z" stroke-linecap="round" />
</g>
		<g transform="matrix(0.13 0 0 -0.13 512.66 141.33)"  >
<path style="stroke: none; stroke-width: 1; stroke-dasharray: none; stroke-linecap: butt; stroke-dashoffset: 0; stroke-linejoin: miter; stroke-miterlimit: 4; fill: rgb(32,110,202); fill-rule: nonzero; opacity: 1;" vector-effect="non-scaling-stroke"  transform=" translate(-10126.91, -870.13)" d="M 10090 890 C 10075 862 10097 830 10132 830 C 10161 830 10176 856 10165 890 C 10156 917 10105 917 10090 890 z" stroke-linecap="round" />
</g>
		<g transform="matrix(0.13 0 0 -0.13 -242.52 165.97)"  >
<path style="stroke: none; stroke-width: 1; stroke-dasharray: none; stroke-linecap: butt; stroke-dashoffset: 0; stroke-linejoin: miter; stroke-miterlimit: 4; fill: rgb(32,110,202); fill-rule: nonzero; opacity: 1;" vector-effect="non-scaling-stroke"  transform=" translate(-4463.05, -685.36)" d="M 4413 882 C 4406 878 4392 847 4381 815 C 4370 782 4341 697 4316 625 C 4290 552 4274 492 4279 487 C 4292 474 4342 483 4351 500 C 4356 508 4364 527 4370 543 C 4379 569 4381 570 4458 570 L 4536 570 L 4551 528 C 4565 491 4571 485 4600 482 C 4638 478 4658 492 4643 512 C 4638 519 4623 557 4611 595 C 4599 634 4585 674 4580 685 C 4575 696 4560 741 4545 784 C 4531 828 4515 869 4509 877 C 4497 891 4433 895 4413 882 z M 4480 747 C 4480 737 4487 715 4496 699 C 4517 658 4503 643 4451 648 C 4404 653 4405 651 4424 714 C 4442 772 4460 797 4471 778 C 4476 771 4480 757 4480 747 z" stroke-linecap="round" />
</g>
		<g transform="matrix(0.13 0 0 -0.13 29.94 166.2)"  >
<path style="stroke: none; stroke-width: 1; stroke-dasharray: none; stroke-linecap: butt; stroke-dashoffset: 0; stroke-linejoin: miter; stroke-miterlimit: 4; fill: rgb(32,110,202); fill-rule: nonzero; opacity: 1;" vector-effect="non-scaling-stroke"  transform=" translate(-6506.49, -683.64)" d="M 6455 883 C 6380 862 6337 789 6338 679 C 6338 588 6362 533 6413 501 C 6455 475 6541 472 6560 495 C 6576 514 6594 514 6610 494 C 6618 486 6635 480 6649 482 L 6675 485 L 6675 595 L 6675 705 L 6595 705 L 6515 705 L 6515 675 C 6515 648 6518 645 6550 642 C 6569 640 6589 635 6594 630 C 6610 614 6590 571 6560 555 C 6517 533 6495 536 6456 574 C 6421 607 6420 609 6420 684 C 6420 753 6423 763 6448 791 C 6471 817 6482 822 6522 822 C 6554 822 6578 815 6599 799 C 6628 778 6630 778 6654 794 C 6683 813 6678 830 6633 864 C 6607 883 6497 895 6455 883 z" stroke-linecap="round" />
</g>
		<g transform="matrix(0.13 0 0 -0.13 86.3 166.24)"  >
<path style="stroke: none; stroke-width: 1; stroke-dasharray: none; stroke-linecap: butt; stroke-dashoffset: 0; stroke-linejoin: miter; stroke-miterlimit: 4; fill: rgb(32,110,202); fill-rule: nonzero; opacity: 1;" vector-effect="non-scaling-stroke"  transform=" translate(-6929.19, -683.29)" d="M 6875 883 C 6839 873 6800 839 6780 800 C 6751 742 6753 619 6784 565 C 6844 460 7020 448 7084 545 C 7105 577 7104 593 7080 607 C 7057 622 7033 615 7025 590 C 7017 566 6954 537 6925 544 C 6912 547 6888 561 6873 574 C 6846 597 6845 603 6845 684 C 6845 762 6847 772 6870 794 C 6909 832 6979 833 7014 795 C 7042 765 7048 765 7078 790 C 7104 812 7098 830 7053 864 C 7027 883 6917 895 6875 883 z" stroke-linecap="round" />
</g>
		<g transform="matrix(0.13 0 0 -0.13 158.06 166.11)"  >
<path style="stroke: none; stroke-width: 1; stroke-dasharray: none; stroke-linecap: butt; stroke-dashoffset: 0; stroke-linejoin: miter; stroke-miterlimit: 4; fill: rgb(32,110,202); fill-rule: nonzero; opacity: 1;" vector-effect="non-scaling-stroke"  transform=" translate(-7467.41, -684.26)" d="M 7394 876 C 7320 843 7282 758 7294 652 C 7302 586 7329 538 7378 505 C 7408 485 7427 480 7481 480 C 7554 480 7580 493 7621 552 L 7643 583 L 7619 601 C 7586 626 7578 625 7559 591 C 7549 574 7528 558 7507 550 C 7457 534 7405 559 7385 608 C 7355 678 7374 780 7421 809 C 7458 831 7519 825 7549 796 C 7582 765 7591 764 7615 790 C 7633 810 7633 811 7613 838 C 7602 853 7578 870 7559 877 C 7513 893 7432 892 7394 876 z" stroke-linecap="round" />
</g>
		<g transform="matrix(0.13 0 0 -0.13 649 166.27)"  >
<path style="stroke: none; stroke-width: 1; stroke-dasharray: none; stroke-linecap: butt; stroke-dashoffset: 0; stroke-linejoin: miter; stroke-miterlimit: 4; fill: rgb(32,110,202); fill-rule: nonzero; opacity: 1;" vector-effect="non-scaling-stroke"  transform=" translate(-11149.47, -683.05)" d="M 11128 883 C 11112 879 11110 861 11110 684 L 11110 490 L 11135 484 C 11190 470 11191 472 11188 687 C 11185 877 11184 885 11165 887 C 11154 887 11137 886 11128 883 z" stroke-linecap="round" />
</g>
		<g transform="matrix(0.13 0 0 -0.13 -743.49 141.83)"  >
<path style="stroke: none; stroke-width: 1; stroke-dasharray: none; stroke-linecap: butt; stroke-dashoffset: 0; stroke-linejoin: miter; stroke-miterlimit: 4; fill: rgb(32,110,202); fill-rule: nonzero; opacity: 1;" vector-effect="non-scaling-stroke"  transform=" translate(-705.78, -866.37)" d="M 692 868 C 698 850 720 847 720 864 C 720 873 713 880 704 880 C 695 880 690 875 692 868 z" stroke-linecap="round" />
</g>
		<g transform="matrix(0.13 0 0 -0.13 -724.06 145.87)"  >
<path style="stroke: none; stroke-width: 1; stroke-dasharray: none; stroke-linecap: butt; stroke-dashoffset: 0; stroke-linejoin: miter; stroke-miterlimit: 4; fill: rgb(32,110,202); fill-rule: nonzero; opacity: 1;" vector-effect="non-scaling-stroke"  transform=" translate(-851.47, -836.09)" d="M 850 865 C 843 857 831 850 824 850 C 816 850 810 846 810 840 C 810 835 817 830 825 830 C 833 830 844 821 850 809 C 866 780 884 791 891 833 C 895 859 893 871 883 875 C 864 882 864 882 850 865 z" stroke-linecap="round" />
</g>
		<g transform="matrix(0.13 0 0 -0.13 332.31 168.27)"  >
<path style="stroke: none; stroke-width: 1; stroke-dasharray: none; stroke-linecap: butt; stroke-dashoffset: 0; stroke-linejoin: miter; stroke-miterlimit: 4; fill: rgb(32,110,202); fill-rule: nonzero; opacity: 1;" vector-effect="non-scaling-stroke"  transform=" translate(-8774.25, -668.11)" d="M 8733 853 C 8717 850 8710 842 8710 825 C 8710 811 8701 796 8690 790 C 8679 784 8670 771 8670 762 C 8670 752 8679 737 8690 727 C 8707 713 8710 698 8710 635 C 8710 520 8738 480 8817 480 C 8869 480 8884 492 8876 524 C 8871 545 8865 550 8850 545 C 8839 542 8821 544 8810 550 C 8791 560 8789 569 8792 643 L 8795 725 L 8832 728 C 8894 733 8894 787 8832 792 C 8800 795 8794 799 8790 825 C 8785 855 8773 861 8733 853 z" stroke-linecap="round" />
</g>
		<g transform="matrix(0.13 0 0 -0.13 486.43 168)"  >
<path style="stroke: none; stroke-width: 1; stroke-dasharray: none; stroke-linecap: butt; stroke-dashoffset: 0; stroke-linejoin: miter; stroke-miterlimit: 4; fill: rgb(32,110,202); fill-rule: nonzero; opacity: 1;" vector-effect="non-scaling-stroke"  transform=" translate(-9930.13, -670.12)" d="M 9888 853 C 9877 850 9870 839 9870 826 C 9870 811 9861 799 9845 792 C 9816 779 9811 743 9838 733 C 9866 722 9870 709 9870 623 C 9870 550 9873 538 9896 511 C 9918 484 9929 480 9969 480 C 10012 480 10040 492 10040 511 C 10040 528 10007 550 9990 545 C 9960 535 9940 576 9940 646 C 9940 714 9948 726 9995 732 C 10019 734 10025 740 10025 760 C 10025 777 10019 786 10005 788 C 9948 796 9940 801 9940 824 C 9940 842 9917 866 9907 859 C 9906 858 9897 856 9888 853 z" stroke-linecap="round" />
</g>
		<g transform="matrix(0.13 0 0 -0.13 -740.5 149.76)"  >
<path style="stroke: none; stroke-width: 1; stroke-dasharray: none; stroke-linecap: butt; stroke-dashoffset: 0; stroke-linejoin: miter; stroke-miterlimit: 4; fill: rgb(32,110,202); fill-rule: nonzero; opacity: 1;" vector-effect="non-scaling-stroke"  transform=" translate(-728.19, -806.9)" d="M 720 804 C 720 796 725 792 730 795 C 736 799 738 806 735 811 C 726 825 720 822 720 804 z" stroke-linecap="round" />
</g>
		<g transform="matrix(0.13 0 0 -0.13 -198.26 172.5)"  >
<path style="stroke: none; stroke-width: 1; stroke-dasharray: none; stroke-linecap: butt; stroke-dashoffset: 0; stroke-linejoin: miter; stroke-miterlimit: 4; fill: rgb(32,110,202); fill-rule: nonzero; opacity: 1;" vector-effect="non-scaling-stroke"  transform=" translate(-4795, -636.37)" d="M 4762 789 C 4714 779 4680 744 4680 704 C 4680 661 4714 627 4774 610 C 4829 595 4848 577 4830 555 C 4814 535 4775 536 4740 556 C 4706 577 4680 568 4680 537 C 4680 469 4856 458 4902 524 C 4906 530 4910 553 4910 576 C 4910 626 4894 642 4820 667 C 4779 681 4764 692 4762 707 C 4758 737 4791 745 4835 724 C 4869 708 4871 708 4885 726 C 4904 751 4904 755 4878 772 C 4849 791 4804 798 4762 789 z" stroke-linecap="round" />
</g>
		<g transform="matrix(0.13 0 0 -0.13 -59.7 172.39)"  >
<path style="stroke: none; stroke-width: 1; stroke-dasharray: none; stroke-linecap: butt; stroke-dashoffset: 0; stroke-linejoin: miter; stroke-miterlimit: 4; fill: rgb(32,110,202); fill-rule: nonzero; opacity: 1;" vector-effect="non-scaling-stroke"  transform=" translate(-5834.19, -637.2)" d="M 5800 793 C 5749 785 5710 760 5710 735 C 5710 700 5724 697 5775 720 C 5822 742 5860 735 5860 706 C 5860 686 5841 674 5778 656 C 5718 639 5690 612 5690 572 C 5690 542 5715 494 5735 486 C 5767 474 5829 480 5845 496 C 5860 511 5864 511 5893 495 C 5935 473 5974 478 5978 507 C 5980 521 5974 533 5961 540 C 5942 549 5940 560 5940 633 C 5940 678 5937 724 5934 735 C 5923 775 5860 802 5800 793 z M 5870 605 C 5870 597 5865 579 5858 565 C 5848 543 5841 539 5811 542 C 5782 544 5774 550 5772 568 C 5768 598 5795 619 5838 620 C 5859 620 5870 615 5870 605 z" stroke-linecap="round" />
</g>
		<g transform="matrix(0.13 0 0 -0.13 254.41 172.43)"  >
<path style="stroke: none; stroke-width: 1; stroke-dasharray: none; stroke-linecap: butt; stroke-dashoffset: 0; stroke-linejoin: miter; stroke-miterlimit: 4; fill: rgb(32,110,202); fill-rule: nonzero; opacity: 1;" vector-effect="non-scaling-stroke"  transform=" translate(-8190, -636.87)" d="M 8210 792 C 8196 790 8177 781 8167 772 C 8149 756 8147 756 8135 773 C 8128 782 8110 790 8093 790 C 8054 790 8050 777 8050 625 C 8050 494 8055 480 8102 480 L 8130 480 L 8131 568 C 8132 676 8138 697 8172 718 C 8194 731 8203 732 8224 722 C 8250 711 8250 709 8250 601 C 8250 484 8252 480 8306 480 L 8330 480 L 8330 604 C 8330 722 8329 730 8305 758 C 8279 789 8253 798 8210 792 z" stroke-linecap="round" />
</g>
		<g transform="matrix(0.13 0 0 -0.13 298.4 172.34)"  >
<path style="stroke: none; stroke-width: 1; stroke-dasharray: none; stroke-linecap: butt; stroke-dashoffset: 0; stroke-linejoin: miter; stroke-miterlimit: 4; fill: rgb(32,110,202); fill-rule: nonzero; opacity: 1;" vector-effect="non-scaling-stroke"  transform=" translate(-8519.9, -637.54)" d="M 8495 793 C 8412 776 8376 689 8433 642 C 8441 635 8472 621 8501 610 C 8545 595 8555 587 8555 568 C 8555 538 8510 532 8464 556 C 8437 571 8429 572 8416 561 C 8371 523 8426 480 8518 480 C 8572 480 8582 483 8609 511 C 8645 547 8650 593 8621 627 C 8611 639 8575 657 8541 667 C 8497 680 8480 690 8480 702 C 8480 731 8516 743 8551 726 C 8587 708 8620 719 8620 749 C 8620 775 8542 803 8495 793 z" stroke-linecap="round" />
</g>
		<g transform="matrix(0.13 0 0 -0.13 595.94 172.42)"  >
<path style="stroke: none; stroke-width: 1; stroke-dasharray: none; stroke-linecap: butt; stroke-dashoffset: 0; stroke-linejoin: miter; stroke-miterlimit: 4; fill: rgb(32,110,202); fill-rule: nonzero; opacity: 1;" vector-effect="non-scaling-stroke"  transform=" translate(-10751.5, -636.96)" d="M 10770 792 C 10762 790 10740 781 10721 773 C 10690 759 10686 759 10678 774 C 10666 795 10624 795 10616 774 C 10613 765 10610 698 10610 624 C 10610 478 10613 471 10665 484 C 10689 490 10690 493 10690 578 C 10690 676 10703 710 10742 724 C 10764 732 10774 730 10790 715 C 10808 699 10810 685 10810 593 C 10810 480 10815 471 10866 484 L 10893 491 L 10888 611 C 10884 710 10879 736 10863 758 C 10844 784 10799 801 10770 792 z" stroke-linecap="round" />
</g>
		<g transform="matrix(0.13 0 0 -0.13 687.33 172.02)"  >
<path style="stroke: none; stroke-width: 1; stroke-dasharray: none; stroke-linecap: butt; stroke-dashoffset: 0; stroke-linejoin: miter; stroke-miterlimit: 4; fill: rgb(32,110,202); fill-rule: nonzero; opacity: 1;" vector-effect="non-scaling-stroke"  transform=" translate(-11436.87, -639.94)" d="M 11445 793 C 11435 790 11415 781 11402 772 C 11379 757 11377 757 11365 774 C 11357 784 11342 790 11328 788 C 11305 785 11305 784 11305 635 L 11305 485 L 11335 485 L 11365 485 L 11370 580 C 11377 701 11393 730 11450 730 C 11484 730 11495 701 11500 591 L 11505 485 L 11535 485 L 11565 485 L 11568 590 C 11572 709 11560 761 11528 778 C 11496 793 11468 798 11445 793 z" stroke-linecap="round" />
</g>
		<g transform="matrix(0.13 0 0 -0.13 206.93 172.71)"  >
<path style="stroke: none; stroke-width: 1; stroke-dasharray: none; stroke-linecap: butt; stroke-dashoffset: 0; stroke-linejoin: miter; stroke-miterlimit: 4; fill: rgb(32,110,202); fill-rule: nonzero; opacity: 1;" vector-effect="non-scaling-stroke"  transform=" translate(-7833.88, -634.77)" d="M 7744 765 C 7710 738 7680 676 7680 632 C 7681 587 7716 522 7752 500 C 7800 471 7875 473 7922 505 C 7950 524 7963 543 7976 584 C 7992 636 7992 641 7974 691 C 7949 762 7908 790 7831 790 C 7787 790 7768 785 7744 765 z M 7881 704 C 7929 652 7898 540 7834 540 C 7821 540 7800 554 7785 572 C 7762 599 7759 611 7763 649 C 7771 724 7834 754 7881 704 z" stroke-linecap="round" />
</g>
		<g transform="matrix(0.13 0 0 -0.13 367.12 172.35)"  >
<path style="stroke: none; stroke-width: 1; stroke-dasharray: none; stroke-linecap: butt; stroke-dashoffset: 0; stroke-linejoin: miter; stroke-miterlimit: 4; fill: rgb(32,110,202); fill-rule: nonzero; opacity: 1;" vector-effect="non-scaling-stroke"  transform=" translate(-9035.31, -637.5)" d="M 8944 777 C 8942 770 8941 701 8942 625 L 8945 485 L 8980 485 L 9015 485 L 9018 581 C 9021 689 9031 707 9092 719 C 9120 725 9125 730 9128 758 C 9131 788 9129 790 9099 790 C 9081 790 9058 782 9047 773 C 9029 756 9028 756 9019 773 C 9007 793 8952 796 8944 777 z" stroke-linecap="round" />
</g>
		<g transform="matrix(0.13 0 0 -0.13 403.74 172.65)"  >
<path style="stroke: none; stroke-width: 1; stroke-dasharray: none; stroke-linecap: butt; stroke-dashoffset: 0; stroke-linejoin: miter; stroke-miterlimit: 4; fill: rgb(32,110,202); fill-rule: nonzero; opacity: 1;" vector-effect="non-scaling-stroke"  transform=" translate(-9310, -635.24)" d="M 9177 784 C 9173 780 9170 731 9170 675 C 9170 565 9185 509 9219 490 C 9249 475 9311 478 9332 497 C 9349 512 9351 512 9368 497 C 9392 476 9436 475 9444 496 C 9452 516 9452 738 9444 768 C 9439 785 9430 790 9404 790 C 9378 790 9370 786 9370 773 C 9366 607 9361 575 9340 558 C 9312 535 9287 535 9267 558 C 9255 571 9250 601 9248 680 L 9245 785 L 9215 788 C 9198 790 9181 788 9177 784 z" stroke-linecap="round" />
</g>
		<g transform="matrix(0.13 0 0 -0.13 450.34 172.7)"  >
<path style="stroke: none; stroke-width: 1; stroke-dasharray: none; stroke-linecap: butt; stroke-dashoffset: 0; stroke-linejoin: miter; stroke-miterlimit: 4; fill: rgb(32,110,202); fill-rule: nonzero; opacity: 1;" vector-effect="non-scaling-stroke"  transform=" translate(-9659.5, -634.86)" d="M 9593 777 C 9544 749 9525 710 9525 635 C 9525 559 9540 526 9592 496 C 9632 472 9711 475 9746 502 C 9796 541 9802 558 9769 578 C 9752 589 9745 588 9719 565 C 9702 551 9681 540 9671 540 C 9643 540 9612 568 9600 604 C 9586 648 9607 705 9646 722 C 9668 732 9678 731 9710 714 C 9746 694 9748 694 9771 711 L 9794 728 L 9761 759 C 9732 786 9721 790 9671 790 C 9640 789 9605 784 9593 777 z" stroke-linecap="round" />
</g>
		<g transform="matrix(0.13 0 0 -0.13 512.48 172.66)"  >
<path style="stroke: none; stroke-width: 1; stroke-dasharray: none; stroke-linecap: butt; stroke-dashoffset: 0; stroke-linejoin: miter; stroke-miterlimit: 4; fill: rgb(32,110,202); fill-rule: nonzero; opacity: 1;" vector-effect="non-scaling-stroke"  transform=" translate(-10125.5, -635.17)" d="M 10096 774 C 10093 765 10090 698 10090 625 C 10090 513 10092 491 10106 486 C 10130 477 10160 479 10161 490 C 10161 496 10161 556 10161 625 C 10161 694 10161 759 10161 770 C 10160 785 10153 790 10131 790 C 10114 790 10100 784 10096 774 z" stroke-linecap="round" />
</g>
		<g transform="matrix(0.13 0 0 -0.13 547.68 172.72)"  >
<path style="stroke: none; stroke-width: 1; stroke-dasharray: none; stroke-linecap: butt; stroke-dashoffset: 0; stroke-linejoin: miter; stroke-miterlimit: 4; fill: rgb(32,110,202); fill-rule: nonzero; opacity: 1;" vector-effect="non-scaling-stroke"  transform=" translate(-10389.5, -634.7)" d="M 10309 775 C 10264 750 10246 712 10245 639 C 10245 530 10290 480 10390 480 C 10486 480 10534 531 10534 635 C 10534 705 10514 747 10468 773 C 10432 794 10346 795 10309 775 z M 10431 711 C 10451 695 10455 683 10454 635 C 10454 587 10450 574 10431 559 C 10375 514 10325 551 10325 637 C 10325 682 10329 695 10349 711 C 10378 735 10402 735 10431 711 z" stroke-linecap="round" />
</g>
		<g transform="matrix(0.13 0 0 -0.13 732.05 172.65)"  >
<path style="stroke: none; stroke-width: 1; stroke-dasharray: none; stroke-linecap: butt; stroke-dashoffset: 0; stroke-linejoin: miter; stroke-miterlimit: 4; fill: rgb(32,110,202); fill-rule: nonzero; opacity: 1;" vector-effect="non-scaling-stroke"  transform=" translate(-11772.28, -635.2)" d="M 11704 771 C 11618 719 11618 554 11705 500 C 11748 473 11822 473 11865 500 C 11906 526 11915 548 11894 571 C 11872 596 11862 595 11834 565 C 11803 532 11767 533 11740 568 C 11722 590 11719 605 11722 648 C 11727 703 11736 715 11778 726 C 11794 731 11811 726 11831 711 C 11855 693 11863 692 11880 702 C 11908 720 11905 745 11871 769 C 11833 797 11748 798 11704 771 z" stroke-linecap="round" />
</g>
		<g transform="matrix(0.13 0 0 -0.13 762.86 187.2)"  >
<path style="stroke: none; stroke-width: 1; stroke-dasharray: none; stroke-linecap: butt; stroke-dashoffset: 0; stroke-linejoin: miter; stroke-miterlimit: 4; fill: rgb(32,110,202); fill-rule: nonzero; opacity: 1;" vector-effect="non-scaling-stroke"  transform=" translate(-12003.37, -526.1)" d="M 11967 563 C 11963 560 11960 542 11960 524 C 11960 500 11965 490 11980 485 C 12027 470 12062 508 12040 550 C 12030 569 11982 578 11967 563 z" stroke-linecap="round" />
</g>
		<g transform="matrix(0.13 0 0 -0.13 -586.9 183.38)"  >
<path style="stroke: none; stroke-width: 1; stroke-dasharray: none; stroke-linecap: butt; stroke-dashoffset: 0; stroke-linejoin: miter; stroke-miterlimit: 4; fill: rgb(32,110,202); fill-rule: nonzero; opacity: 1;" vector-effect="non-scaling-stroke"  transform=" translate(-1880.18, -554.75)" d="M 1868 553 C 1874 551 1886 551 1893 553 C 1899 556 1894 558 1880 558 C 1866 558 1861 556 1868 553 z" stroke-linecap="round" />
</g>
		<g transform="matrix(0.13 0 0 -0.13 -577.35 190.68)"  >
<path style="stroke: none; stroke-width: 1; stroke-dasharray: none; stroke-linecap: butt; stroke-dashoffset: 0; stroke-linejoin: miter; stroke-miterlimit: 4; fill: rgb(32,110,202); fill-rule: nonzero; opacity: 1;" vector-effect="non-scaling-stroke"  transform=" translate(-1951.8, -500)" d="M 1945 500 C 1942 495 1944 490 1949 490 C 1955 490 1960 495 1960 500 C 1960 506 1958 510 1956 510 C 1953 510 1948 506 1945 500 z" stroke-linecap="round" />
</g>
</g>
</g>
<g transform="matrix(NaN NaN NaN NaN 0 0)"  >
<g style=""   >
</g>
</g>
</svg>